<svg width="197" height="59" viewBox="0 0 197 59" fill="none" xmlns="http://www.w3.org/2000/svg">
<g clip-path="url(#clip0_453_666)">
<path fill-rule="evenodd" clip-rule="evenodd" d="M16.6039 0.471926H181.391C181.979 0.471926 182.578 0.471738 183.166 0.474641C183.574 0.476953 183.99 0.483047 184.4 0.489061C184.493 0.490415 184.585 0.491765 184.676 0.493067C185.774 0.503881 186.87 0.589684 187.952 0.749715C189.04 0.91367 190.093 1.22051 191.078 1.66009C193.048 2.55697 194.652 3.97869 195.663 5.72528C196.157 6.59556 196.499 7.5274 196.677 8.48882C196.859 9.44972 196.961 10.4214 196.981 11.3956C196.987 11.8409 196.987 12.2875 196.987 12.7327C197 13.2588 197 13.7863 197 14.318V44.7055C197 45.2416 197 45.7662 196.987 46.2937C196.987 46.7445 196.987 47.1812 196.981 47.6322C196.961 48.6065 196.859 49.578 196.677 50.5389C196.499 51.5009 196.157 52.4333 195.663 53.3039C195.16 54.1703 194.507 54.9613 193.727 55.6478C192.953 56.3401 192.059 56.9179 191.078 57.3592C190.093 57.7999 189.04 58.1086 187.952 58.2751C186.869 58.4338 185.774 58.5196 184.676 58.5318C184.177 58.5417 183.665 58.5473 183.166 58.5473C182.578 58.5502 181.979 58.5502 181.391 58.5502H16.6039C16.0033 58.5502 15.4098 58.5502 14.8107 58.5473C14.3092 58.5473 13.8118 58.5417 13.3055 58.5318C12.2056 58.5189 11.1084 58.4331 10.023 58.2751C8.93919 58.1098 7.88956 57.801 6.90928 57.3592C5.92782 56.9182 5.03262 56.3404 4.25787 55.6478C3.47596 54.964 2.82419 54.1724 2.3279 53.3039C1.82955 52.4339 1.48429 51.5014 1.30413 50.5389C1.12176 49.5782 1.02362 48.6064 1.0106 47.6322C1.00021 47.3241 0.99617 47.0227 0.992099 46.7188C0.990211 46.5779 0.988316 46.4365 0.985779 46.2937V12.7327C0.988346 12.59 0.990256 12.4472 0.992166 12.3042C0.996215 12.0013 1.00027 11.6982 1.0106 11.3957C1.02361 10.4215 1.12175 9.44965 1.30413 8.48888C1.48479 7.5269 1.83002 6.59499 2.3279 5.72534C2.82442 4.85396 3.47609 4.05919 4.25787 3.37159C5.03557 2.68205 5.93019 2.10461 6.90928 1.66022C7.88957 1.21956 8.93931 0.912643 10.023 0.749845C11.1082 0.590517 12.2055 0.504743 13.3055 0.49327C13.4106 0.491796 13.5153 0.490264 13.6198 0.488737C14.0185 0.482906 14.4134 0.477131 14.8107 0.47483C15.4098 0.471926 16.0033 0.471926 16.6039 0.471926ZM13.1939 57.2686C13.6899 57.2785 14.1778 57.2841 14.6777 57.2841L181.537 57.287L183.316 57.2841C183.805 57.2841 184.308 57.2785 184.789 57.2686C185.816 57.2575 186.841 57.1783 187.856 57.0317C188.808 56.8887 189.731 56.6196 190.593 56.2333C191.443 55.8507 192.219 55.3492 192.889 54.7483C193.56 54.1592 194.123 53.4801 194.555 52.7359C194.989 51.9725 195.288 51.1545 195.441 50.3107C195.609 49.4207 195.703 48.521 195.722 47.6189C195.728 47.1736 195.728 46.741 195.728 46.2687C195.741 45.7497 195.741 45.2349 195.741 44.7072V14.3134C195.741 13.7907 195.741 13.2724 195.728 12.7278C195.728 12.2881 195.728 11.8464 195.723 11.4351C195.704 10.5166 195.609 9.60057 195.438 8.69436C195.284 7.86151 194.988 7.05416 194.56 6.2997C193.686 4.79093 192.3 3.56206 190.597 2.78533C189.733 2.40117 188.809 2.13302 187.856 1.98971C186.847 1.84326 185.828 1.76433 184.806 1.75358L183.308 1.73514H14.6785L13.1979 1.75287C12.1668 1.76418 11.1381 1.84382 10.1205 1.99113C9.17656 2.13267 8.26206 2.39896 7.40759 2.78107C6.55755 3.16649 5.7811 3.66755 5.10653 4.26596C4.43121 4.85875 3.8687 5.54434 3.44082 6.29615C3.0064 7.05586 2.70568 7.86985 2.54908 8.70996C2.38078 9.60879 2.28998 10.5177 2.27747 11.4287C2.26787 11.7237 2.25336 12.7278 2.25336 12.7278V46.2758C2.25336 46.2758 2.26698 47.2956 2.27738 47.6019C2.29045 48.5144 2.38178 49.4247 2.55059 50.3249C2.7069 51.1627 3.00739 51.9743 3.44158 52.7316C3.87104 53.4839 4.43668 54.169 5.1161 54.7597C5.78582 55.3574 6.5598 55.8559 7.40839 56.236C8.26483 56.6194 9.18107 56.8875 10.1269 57.0317C11.1412 57.1776 12.1663 57.2567 13.1939 57.2686Z" fill="#5368F8"/>
<path d="M14.6777 57.2841C14.1778 57.2841 13.6899 57.2784 13.1939 57.2685C12.1663 57.2567 11.1412 57.1775 10.1269 57.0317C9.18106 56.8875 8.26483 56.6193 7.40839 56.236C6.5598 55.8558 5.78582 55.3573 5.1161 54.7596C4.43668 54.169 3.87103 53.4839 3.44157 52.7315C3.00738 51.9743 2.7069 51.1627 2.55058 50.3249C2.38178 49.4246 2.29045 48.5143 2.27738 47.6019C2.26698 47.2956 2.25336 46.2758 2.25336 46.2758V12.7278C2.25336 12.7278 2.26786 11.7237 2.27746 11.4287C2.28997 10.5176 2.38077 9.60876 2.54907 8.70992C2.70568 7.86982 3.00639 7.05583 3.44082 6.29612C3.8687 5.54431 4.43121 4.85872 5.10653 4.26593C5.78109 3.66752 6.55755 3.16646 7.40758 2.78104C8.26205 2.39893 9.17656 2.13264 10.1205 1.9911C11.1381 1.84379 12.1668 1.76415 13.1979 1.75284L14.6785 1.73511H183.308L184.806 1.75355C185.828 1.7643 186.847 1.84323 187.856 1.98967C188.809 2.13299 189.733 2.40114 190.597 2.7853C192.3 3.56203 193.686 4.7909 194.56 6.29967C194.988 7.05413 195.284 7.86148 195.438 8.69433C195.609 9.60054 195.704 10.5165 195.723 11.435C195.728 11.8463 195.728 12.2881 195.728 12.7278C195.741 13.2724 195.741 13.7907 195.741 14.3133V44.7072C195.741 45.2348 195.741 45.7497 195.728 46.2687C195.728 46.741 195.728 47.1736 195.722 47.6189C195.703 48.521 195.609 49.4206 195.441 50.3106C195.288 51.1545 194.989 51.9725 194.555 52.7359C194.123 53.4801 193.56 54.1592 192.889 54.7483C192.219 55.3492 191.443 55.8506 190.593 56.2332C189.731 56.6195 188.808 56.8887 187.856 57.0317C186.841 57.1783 185.816 57.2575 184.789 57.2685C184.308 57.2784 183.805 57.2841 183.316 57.2841L181.537 57.287L14.6777 57.2841Z" fill="#5368F8"/>
<path d="M48.6061 29.9475C48.6217 28.7356 48.9436 27.5474 49.5418 26.4933C50.1401 25.4393 50.9952 24.5537 52.0277 23.9189C51.3718 22.9822 50.5065 22.2113 49.5005 21.6674C48.4946 21.1236 47.3757 20.8218 46.2327 20.786C43.7945 20.5301 41.4308 22.245 40.1883 22.245C38.9218 22.245 37.0089 20.8115 34.949 20.8538C33.6165 20.8969 32.318 21.2843 31.1798 21.9785C30.0417 22.6726 29.1027 23.6497 28.4545 24.8146C25.6464 29.6764 27.741 36.8215 30.4309 40.7514C31.7767 42.6757 33.3496 44.8253 35.4076 44.7491C37.4216 44.6655 38.1738 43.4648 40.6048 43.4648C43.0132 43.4648 43.7189 44.7491 45.8188 44.7006C47.9798 44.6655 49.3414 42.7677 50.64 40.8251C51.607 39.454 52.351 37.9385 52.8447 36.3349C51.5892 35.8039 50.5177 34.9151 49.764 33.7792C49.0102 32.6433 48.6075 31.3107 48.6061 29.9475Z" fill="white"/>
<path d="M44.6399 18.2015C45.8182 16.787 46.3987 14.9689 46.2581 13.1333C44.4579 13.3224 42.795 14.1827 41.6008 15.543C41.0169 16.2075 40.5697 16.9806 40.2848 17.818C39.9999 18.6555 39.8828 19.5409 39.9402 20.4236C40.8406 20.4328 41.7314 20.2377 42.5455 19.8528C43.3595 19.4679 44.0756 18.9033 44.6399 18.2015Z" fill="white"/>
<path d="M74.0638 39.8777H67.1911L65.5407 44.7511H62.6297L69.1394 26.7207H72.1638L78.6735 44.7511H75.7129L74.0638 39.8777ZM67.9029 37.6288H73.3507L70.6651 29.7196H70.59L67.9029 37.6288Z" fill="white"/>
<path d="M92.7322 38.179C92.7322 42.264 90.5458 44.8886 87.2463 44.8886C86.4105 44.9323 85.5792 44.7398 84.8477 44.3331C84.1162 43.9263 83.5141 43.3218 83.1102 42.5887H83.0478V49.0998H80.3494V31.6055H82.9613V33.7919H83.0109C83.4334 33.0624 84.0457 32.461 84.7828 32.0517C85.5198 31.6425 86.3541 31.4408 87.1967 31.4679C90.533 31.4679 92.7322 34.1053 92.7322 38.179ZM89.9588 38.179C89.9588 35.5176 88.5834 33.7678 86.4848 33.7678C84.4232 33.7678 83.0364 35.5544 83.0364 38.179C83.0364 40.8277 84.4232 42.6015 86.4848 42.6015C88.5834 42.6015 89.9588 40.8646 89.9588 38.179Z" fill="white"/>
<path d="M107.201 38.179C107.201 42.264 105.014 44.8886 101.715 44.8886C100.879 44.9323 100.048 44.7398 99.3163 44.3331C98.5848 43.9263 97.9826 43.3218 97.5787 42.5887H97.5163V49.0998H94.818V31.6055H97.4298V33.7919H97.4794C97.9019 33.0624 98.5142 32.461 99.2513 32.0518C99.9883 31.6425 100.823 31.4408 101.665 31.4679C105.002 31.4679 107.201 34.1053 107.201 38.179ZM104.427 38.179C104.427 35.5176 103.052 33.7678 100.953 33.7678C98.8917 33.7678 97.505 35.5544 97.505 38.179C97.505 40.8277 98.8917 42.6015 100.953 42.6015C103.052 42.6015 104.427 40.8646 104.427 38.179Z" fill="white"/>
<path d="M116.763 39.7274C116.963 41.5154 118.7 42.6894 121.074 42.6894C123.348 42.6894 124.984 41.5153 124.984 39.9031C124.984 38.5036 123.998 37.6657 121.661 37.0914L119.324 36.5285C116.013 35.7287 114.476 34.1804 114.476 31.6678C114.476 28.5569 117.187 26.42 121.037 26.42C124.847 26.42 127.459 28.5569 127.547 31.6678H124.823C124.66 29.8684 123.172 28.7823 120.999 28.7823C118.825 28.7823 117.338 29.8812 117.338 31.4806C117.338 32.7554 118.288 33.5054 120.611 34.0796L122.598 34.5674C126.297 35.4423 127.834 36.9283 127.834 39.5656C127.834 42.9388 125.147 45.0516 120.874 45.0516C116.875 45.0516 114.176 42.9885 114.001 39.7272L116.763 39.7274Z" fill="white"/>
<path d="M133.658 28.4945V31.6055H136.158V33.7423H133.658V40.9893C133.658 42.1152 134.158 42.6398 135.257 42.6398C135.554 42.6346 135.85 42.6138 136.145 42.5774V44.7014C135.651 44.7937 135.149 44.8355 134.646 44.8262C131.985 44.8262 130.947 43.8265 130.947 41.2771V33.7423H129.035V31.6055H130.947V28.4945H133.658Z" fill="white"/>
<path d="M137.605 38.179C137.605 34.0429 140.041 31.4438 143.84 31.4438C147.651 31.4438 150.076 34.0428 150.076 38.179C150.076 42.3264 147.664 44.9141 143.84 44.9141C140.017 44.9141 137.605 42.3264 137.605 38.179ZM147.327 38.179C147.327 35.3417 146.026 33.6672 143.84 33.6672C141.654 33.6672 140.355 35.3545 140.355 38.179C140.355 41.0276 141.654 42.6894 143.84 42.6894C146.026 42.6894 147.327 41.0276 147.327 38.179Z" fill="white"/>
<path d="M152.301 31.6055H154.874V33.8429H154.937C155.111 33.1441 155.52 32.5266 156.096 32.0941C156.672 31.6615 157.379 31.4404 158.099 31.4679C158.41 31.4668 158.72 31.5006 159.023 31.5686V34.0925C158.631 33.9725 158.221 33.9175 157.811 33.9294C157.419 33.9135 157.028 33.9827 156.665 34.132C156.303 34.2814 155.976 34.5076 155.709 34.7949C155.442 35.0822 155.24 35.4239 155.118 35.7966C154.995 36.1693 154.955 36.5641 154.999 36.9539V44.7511H152.301L152.301 31.6055Z" fill="white"/>
<path d="M171.464 40.8901C171.101 43.2764 168.777 44.9141 165.804 44.9141C161.98 44.9141 159.606 42.3519 159.606 38.2414C159.606 34.118 161.992 31.4438 165.69 31.4438C169.327 31.4438 171.614 33.9422 171.614 37.928V38.8525H162.33V39.0156C162.287 39.4994 162.348 39.9867 162.507 40.4453C162.667 40.9039 162.923 41.3232 163.258 41.6754C163.592 42.0275 163.998 42.3045 164.447 42.4879C164.897 42.6713 165.381 42.7569 165.866 42.739C166.504 42.7988 167.144 42.6511 167.691 42.318C168.238 41.9848 168.662 41.484 168.902 40.89L171.464 40.8901ZM162.343 36.9667H168.915C168.939 36.5317 168.873 36.0963 168.721 35.688C168.569 35.2797 168.334 34.9073 168.031 34.594C167.729 34.2807 167.364 34.0334 166.962 33.8675C166.559 33.7017 166.126 33.6209 165.69 33.6303C165.251 33.6277 164.815 33.7121 164.409 33.8787C164.002 34.0453 163.632 34.2908 163.321 34.6009C163.01 34.9111 162.763 35.2799 162.595 35.6859C162.427 36.092 162.341 36.5272 162.343 36.9667Z" fill="white"/>
<path d="M67.5647 13.1489C68.1304 13.1083 68.6981 13.1938 69.2268 13.3991C69.7554 13.6045 70.2319 13.9246 70.6219 14.3364C71.0119 14.7482 71.3056 15.2415 71.4819 15.7805C71.6582 16.3196 71.7126 16.8911 71.6413 17.4537C71.6413 20.2215 70.1454 21.8125 67.5647 21.8125H64.4354V13.1489H67.5647ZM65.781 20.5873H67.4144C67.8187 20.6115 68.2232 20.5452 68.5986 20.3933C68.974 20.2414 69.3108 20.0077 69.5844 19.7092C69.8581 19.4108 70.0618 19.055 70.1807 18.6679C70.2995 18.2808 70.3306 17.872 70.2715 17.4714C70.3263 17.0724 70.2921 16.6661 70.1714 16.2819C70.0507 15.8976 69.8465 15.5447 69.5735 15.2486C69.3004 14.9525 68.9652 14.7205 68.592 14.5692C68.2187 14.4178 67.8166 14.3509 67.4144 14.3732H65.781V20.5873Z" fill="white"/>
<path d="M73.1613 18.5405C73.1202 18.1109 73.1693 17.6774 73.3056 17.2678C73.4418 16.8583 73.6622 16.4817 73.9525 16.1623C74.2428 15.8429 74.5967 15.5877 74.9914 15.4131C75.3861 15.2384 75.8129 15.1482 76.2446 15.1482C76.6762 15.1482 77.103 15.2384 77.4978 15.4131C77.8925 15.5877 78.2463 15.8429 78.5366 16.1623C78.8269 16.4817 79.0473 16.8583 79.1835 17.2678C79.3198 17.6774 79.3689 18.1109 79.3278 18.5405C79.3697 18.9706 79.3212 19.4047 79.1853 19.815C79.0494 20.2252 78.8292 20.6024 78.5388 20.9224C78.2484 21.2425 77.8943 21.4982 77.4992 21.6732C77.1041 21.8482 76.6767 21.9387 76.2446 21.9387C75.8124 21.9387 75.3851 21.8482 74.99 21.6732C74.5948 21.4982 74.2407 21.2425 73.9503 20.9224C73.66 20.6024 73.4397 20.2252 73.3039 19.815C73.168 19.4047 73.1194 18.9706 73.1613 18.5405ZM78.0007 18.5405C78.0007 17.1233 77.364 16.2945 76.2467 16.2945C75.1251 16.2945 74.4942 17.1233 74.4942 18.5405C74.4942 19.9691 75.1252 20.7915 76.2467 20.7915C77.364 20.7915 78.0007 19.9634 78.0007 18.5405Z" fill="white"/>
<path d="M87.5249 21.8124H86.1864L84.8351 16.9971H84.733L83.3874 21.8124H82.0616L80.2594 15.2743H81.5682L82.7394 20.2633H82.8358L84.18 15.2743H85.4179L86.762 20.2633H86.8641L88.0297 15.2743H89.32L87.5249 21.8124Z" fill="white"/>
<path d="M90.8357 15.2743H92.0778V16.313H92.1743C92.3378 15.9399 92.6137 15.6272 92.9634 15.4184C93.3132 15.2096 93.7193 15.1151 94.1253 15.1481C94.4435 15.1242 94.7629 15.1722 95.06 15.2885C95.357 15.4048 95.6241 15.5864 95.8414 15.8199C96.0588 16.0535 96.2208 16.3329 96.3155 16.6376C96.4101 16.9422 96.435 17.2643 96.3883 17.5799V21.8123H95.098V17.9039C95.098 16.8532 94.6415 16.3307 93.6872 16.3307C93.4712 16.3206 93.2556 16.3574 93.0551 16.4384C92.8547 16.5195 92.6741 16.643 92.5259 16.8003C92.3776 16.9577 92.2651 17.1453 92.1961 17.3502C92.1271 17.5551 92.1032 17.7725 92.126 17.9875V21.8124H90.8357L90.8357 15.2743Z" fill="white"/>
<path d="M98.4443 12.722H99.7346V21.8124H98.4443V12.722Z" fill="white"/>
<path d="M101.528 18.5405C101.487 18.1108 101.536 17.6773 101.673 17.2677C101.809 16.8582 102.029 16.4816 102.32 16.1622C102.61 15.8428 102.964 15.5876 103.359 15.4129C103.753 15.2383 104.18 15.1481 104.612 15.1481C105.044 15.1481 105.47 15.2383 105.865 15.4129C106.26 15.5876 106.614 15.8428 106.904 16.1622C107.195 16.4816 107.415 16.8582 107.551 17.2677C107.687 17.6773 107.737 18.1108 107.696 18.5405C107.737 18.9707 107.689 19.4048 107.553 19.815C107.417 20.2252 107.197 20.6024 106.906 20.9224C106.616 21.2425 106.262 21.4982 105.867 21.6732C105.471 21.8482 105.044 21.9386 104.612 21.9386C104.18 21.9386 103.752 21.8482 103.357 21.6732C102.962 21.4982 102.608 21.2425 102.318 20.9224C102.027 20.6024 101.807 20.2252 101.671 19.815C101.535 19.4048 101.486 18.9707 101.528 18.5405ZM106.368 18.5405C106.368 17.1233 105.731 16.2945 104.614 16.2945C103.492 16.2945 102.861 17.1233 102.861 18.5405C102.861 19.9691 103.492 20.7915 104.614 20.7915C105.731 20.7915 106.368 19.9634 106.368 18.5405Z" fill="white"/>
<path d="M109.054 19.9634C109.054 18.7865 109.93 18.1081 111.486 18.0116L113.257 17.9096V17.3452C113.257 16.6547 112.8 16.2648 111.918 16.2648C111.198 16.2648 110.699 16.5292 110.556 16.9915H109.306C109.438 15.8685 110.495 15.1481 111.978 15.1481C113.617 15.1481 114.541 15.9642 114.541 17.3452V21.8124H113.299V20.8936H113.197C112.99 21.2232 112.699 21.4919 112.354 21.6722C112.009 21.8526 111.622 21.9381 111.233 21.9201C110.959 21.9487 110.681 21.9194 110.419 21.8342C110.157 21.7489 109.915 21.6097 109.71 21.4253C109.504 21.2409 109.34 21.0156 109.227 20.7638C109.114 20.512 109.055 20.2394 109.054 19.9634ZM113.257 19.4048V18.8581L111.66 18.9602C110.76 19.0205 110.351 19.3268 110.351 19.9032C110.351 20.4916 110.862 20.834 111.564 20.834C111.769 20.8548 111.977 20.8341 112.175 20.773C112.372 20.7118 112.555 20.6116 112.713 20.4783C112.871 20.3449 113.001 20.1812 113.094 19.9967C113.187 19.8123 113.243 19.611 113.257 19.4048Z" fill="white"/>
<path d="M116.237 18.5405C116.237 16.4746 117.299 15.1659 118.951 15.1659C119.36 15.147 119.765 15.2449 120.12 15.448C120.475 15.6511 120.765 15.9511 120.956 16.3129H121.052V12.722H122.343V21.8124H121.106V20.7794H121.004C120.799 21.1388 120.499 21.435 120.137 21.6361C119.775 21.8371 119.365 21.9354 118.951 21.9201C117.288 21.9202 116.237 20.6114 116.237 18.5405ZM117.57 18.5405C117.57 19.9273 118.224 20.7617 119.317 20.7617C120.405 20.7617 121.077 19.9152 121.077 18.5462C121.077 17.1836 120.397 16.325 119.317 16.325C118.231 16.325 117.57 17.1651 117.57 18.5405Z" fill="white"/>
<path d="M127.681 18.5405C127.64 18.1109 127.689 17.6774 127.826 17.2678C127.962 16.8583 128.182 16.4817 128.472 16.1623C128.763 15.8429 129.117 15.5877 129.511 15.4131C129.906 15.2384 130.333 15.1482 130.765 15.1482C131.196 15.1482 131.623 15.2384 132.018 15.4131C132.412 15.5877 132.766 15.8429 133.057 16.1623C133.347 16.4817 133.567 16.8583 133.704 17.2678C133.84 17.6774 133.889 18.1109 133.848 18.5405C133.89 18.9706 133.841 19.4047 133.705 19.815C133.569 20.2252 133.349 20.6024 133.059 20.9224C132.768 21.2425 132.414 21.4982 132.019 21.6732C131.624 21.8482 131.197 21.9387 130.765 21.9387C130.332 21.9387 129.905 21.8482 129.51 21.6732C129.115 21.4982 128.761 21.2425 128.47 20.9224C128.18 20.6024 127.96 20.2252 127.824 19.815C127.688 19.4047 127.639 18.9706 127.681 18.5405ZM132.521 18.5405C132.521 17.1233 131.884 16.2945 130.767 16.2945C129.645 16.2945 129.014 17.1233 129.014 18.5405C129.014 19.9691 129.645 20.7915 130.767 20.7915C131.884 20.7915 132.521 19.9634 132.521 18.5405Z" fill="white"/>
<path d="M135.579 15.2743H136.821V16.313H136.918C137.081 15.9399 137.357 15.6272 137.707 15.4184C138.057 15.2096 138.463 15.1151 138.869 15.1481C139.187 15.1242 139.506 15.1722 139.803 15.2885C140.1 15.4048 140.368 15.5864 140.585 15.8199C140.802 16.0535 140.964 16.3329 141.059 16.6376C141.154 16.9422 141.178 17.2643 141.132 17.5799V21.8123H139.841V17.9039C139.841 16.8532 139.385 16.3307 138.431 16.3307C138.215 16.3206 137.999 16.3574 137.799 16.4384C137.598 16.5195 137.418 16.643 137.269 16.8003C137.121 16.9577 137.008 17.1453 136.939 17.3502C136.87 17.5551 136.847 17.7725 136.869 17.9875V21.8124H135.579V15.2743Z" fill="white"/>
<path d="M148.423 13.6466V15.3041H149.839V16.391H148.423V19.7529C148.423 20.4377 148.705 20.7376 149.347 20.7376C149.512 20.7371 149.676 20.7271 149.839 20.7078V21.7826C149.608 21.8241 149.373 21.8461 149.137 21.8485C147.702 21.8485 147.131 21.3438 147.131 20.0832V16.3909H146.093V15.304H147.131V13.6466H148.423Z" fill="white"/>
<path d="M151.602 12.722H152.881V16.325H152.983C153.154 15.9485 153.438 15.634 153.794 15.4244C154.151 15.2148 154.564 15.1203 154.976 15.1538C155.293 15.1366 155.609 15.1894 155.903 15.3085C156.197 15.4277 156.46 15.6101 156.675 15.8429C156.89 16.0757 157.052 16.3531 157.147 16.6553C157.243 16.9575 157.27 17.2771 157.228 17.5912V21.8124H155.936V17.9095C155.936 16.8652 155.45 16.3363 154.538 16.3363C154.317 16.3181 154.093 16.3486 153.885 16.4257C153.676 16.5027 153.487 16.6244 153.33 16.7823C153.173 16.9402 153.053 17.1304 152.977 17.3397C152.901 17.549 152.872 17.7722 152.892 17.9939V21.8124H151.602L151.602 12.722Z" fill="white"/>
<path d="M164.752 20.0471C164.576 20.6446 164.196 21.1615 163.679 21.5073C163.161 21.853 162.538 22.0057 161.919 21.9386C161.488 21.9499 161.06 21.8674 160.664 21.6968C160.268 21.5262 159.915 21.2715 159.627 20.9504C159.34 20.6293 159.126 20.2495 159 19.8374C158.874 19.4253 158.839 18.9908 158.898 18.5639C158.841 18.1358 158.876 17.7003 159.002 17.2869C159.127 16.8736 159.34 16.4921 159.626 16.1682C159.912 15.8443 160.264 15.5856 160.659 15.4096C161.053 15.2336 161.481 15.1445 161.913 15.1481C163.732 15.1481 164.83 16.391 164.83 18.4441V18.8943H160.213V18.9666C160.193 19.2066 160.223 19.4481 160.301 19.6757C160.38 19.9032 160.505 20.1119 160.669 20.2883C160.833 20.4646 161.032 20.6047 161.253 20.6997C161.475 20.7947 161.713 20.8423 161.954 20.8396C162.263 20.8767 162.575 20.8211 162.852 20.68C163.129 20.5388 163.358 20.3185 163.509 20.047L164.752 20.0471ZM160.213 17.94H163.515C163.531 17.7206 163.502 17.5002 163.428 17.293C163.354 17.0858 163.237 16.8963 163.085 16.7368C162.934 16.5773 162.751 16.4512 162.548 16.3668C162.344 16.2823 162.126 16.2413 161.906 16.2463C161.683 16.2435 161.461 16.2854 161.254 16.3696C161.048 16.4537 160.86 16.5784 160.702 16.7362C160.544 16.894 160.42 17.0819 160.336 17.2886C160.252 17.4954 160.21 17.7169 160.213 17.94Z" fill="white"/>
</g>
<defs>
<clipPath id="clip0_453_666">
<rect width="196.014" height="58.0783" fill="white" transform="translate(0.985779 0.471924)"/>
</clipPath>
</defs>
</svg>
