<svg width="197" height="59" viewBox="0 0 197 59" fill="none" xmlns="http://www.w3.org/2000/svg">
<g clip-path="url(#clip0_453_665)">
<path d="M189.74 0.609009H8.24557C4.2361 0.609009 0.985779 3.85933 0.985779 7.8688V51.4275C0.985779 55.437 4.2361 58.6873 8.24557 58.6873H189.74C193.75 58.6873 197 55.437 197 51.4275V7.8688C197 3.85933 193.75 0.609009 189.74 0.609009Z" fill="#5368F8"/>
<path d="M189.74 1.77053C191.357 1.7724 192.907 2.41553 194.05 3.55883C195.194 4.70213 195.837 6.25223 195.838 7.86904V51.4278C195.837 53.0446 195.193 54.5946 194.05 55.7379C192.907 56.8812 191.357 57.5244 189.74 57.5263H8.24557C6.62874 57.5244 5.07867 56.8813 3.93543 55.738C2.79219 54.5947 2.14913 53.0446 2.14734 51.4278V7.86904C2.1491 6.2522 2.79215 4.70209 3.9354 3.55879C5.07865 2.41548 6.62873 1.77237 8.24557 1.77053H189.74ZM189.74 0.609253H8.24557C6.32188 0.614884 4.4786 1.38156 3.11834 2.74182C1.75809 4.10207 0.99141 5.94536 0.985779 7.86904L0.985779 51.4278C0.99141 53.3514 1.75809 55.1947 3.11834 56.555C4.4786 57.9152 6.32188 58.6819 8.24557 58.6875H189.74C191.664 58.6819 193.507 57.9152 194.867 56.555C196.228 55.1947 196.994 53.3514 197 51.4278V7.86904C196.994 5.94536 196.228 4.10207 194.867 2.74182C193.507 1.38156 191.664 0.614884 189.74 0.609253Z" fill="#5368F8"/>
<path d="M69.8353 15.4819C69.8617 16.0147 69.7793 16.5473 69.5933 17.0472C69.4073 17.5472 69.1215 18.0041 68.7533 18.39C68.3406 18.818 67.8422 19.1541 67.2907 19.3762C66.7393 19.5983 66.1471 19.7014 65.553 19.6789C64.9551 19.6843 64.3622 19.5701 63.8091 19.343C63.256 19.1159 62.7538 18.7806 62.3322 18.3567C61.9105 17.9327 61.5778 17.4288 61.3537 16.8745C61.1296 16.3202 61.0186 15.7266 61.0271 15.1288C61.0186 14.5309 61.1297 13.9374 61.3539 13.3831C61.578 12.8287 61.9106 12.3248 62.3323 11.9008C62.7539 11.4769 63.256 11.1414 63.8091 10.9143C64.3622 10.6871 64.9551 10.5727 65.553 10.5779C66.1677 10.5761 66.7763 10.7004 67.3411 10.9431C67.8656 11.1557 68.3325 11.4892 68.7038 11.9165L67.938 12.6828C67.6462 12.3394 67.2794 12.0675 66.8659 11.8883C66.4523 11.7091 66.0032 11.6273 65.553 11.6492C65.0999 11.6468 64.6509 11.736 64.2331 11.9112C63.8152 12.0865 63.437 12.3443 63.1211 12.6692C62.8053 12.9941 62.5582 13.3794 62.3948 13.802C62.2313 14.2246 62.1549 14.6759 62.1699 15.1288C62.1591 15.8071 62.35 16.4734 62.7184 17.0432C63.0867 17.6129 63.616 18.0604 64.239 18.3289C64.8621 18.5975 65.5508 18.6749 66.2179 18.5515C66.885 18.4281 67.5005 18.1094 67.9862 17.6357C68.4332 17.154 68.6924 16.5278 68.7164 15.871H65.553V14.8246H69.7743C69.8142 15.0415 69.8346 15.2614 69.8353 15.4819Z" fill="white"/>
<path d="M76.5278 11.8435H72.5604V14.6055H76.1379V15.6521H72.5604V18.4141H76.5278V19.4847H71.4417V10.7729H76.5278V11.8435Z" fill="white"/>
<path d="M81.2481 19.4847H80.1279V11.8435H77.6947V10.7729H83.6813V11.8435H81.2481V19.4847Z" fill="white"/>
<path d="M88.0131 19.4847V10.7729H89.1318V19.4847H88.0131Z" fill="white"/>
<path d="M94.0973 19.4847H92.9771V11.8435H90.5441V10.7729H96.5305V11.8435H94.0973V19.4847Z" fill="white"/>
<path d="M107.863 18.3588C107.015 19.2042 105.867 19.6789 104.669 19.6789C103.472 19.6789 102.324 19.2042 101.476 18.3588C101.056 17.9339 100.726 17.429 100.506 16.8742C100.285 16.3193 100.179 15.7257 100.192 15.1288C100.179 14.5319 100.285 13.9383 100.506 13.3834C100.726 12.8286 101.056 12.3237 101.476 11.8988C101.895 11.4795 102.392 11.1471 102.94 10.9204C103.488 10.6938 104.075 10.5774 104.668 10.5779C105.261 10.5785 105.847 10.6959 106.395 10.9235C106.942 11.1511 107.439 11.4845 107.858 11.9044C108.277 12.3282 108.608 12.832 108.829 13.3858C109.051 13.9397 109.159 14.5324 109.147 15.1288C109.16 15.7257 109.053 16.3191 108.833 16.874C108.612 17.4288 108.283 17.9337 107.863 18.3588ZM102.302 17.6294C102.93 18.2563 103.781 18.6084 104.669 18.6084C105.556 18.6084 106.407 18.2563 107.035 17.6294C107.357 17.2996 107.609 16.9081 107.776 16.4783C107.942 16.0485 108.02 15.5894 108.004 15.1288C108.02 14.6682 107.942 14.2091 107.776 13.7793C107.609 13.3495 107.357 12.9579 107.035 12.6282C106.407 12.0013 105.556 11.6492 104.669 11.6492C103.781 11.6492 102.93 12.0013 102.302 12.6282C101.981 12.9582 101.729 13.3499 101.563 13.7796C101.397 14.2094 101.319 14.6683 101.335 15.1288C101.319 15.5893 101.397 16.0482 101.563 16.478C101.729 16.9077 101.981 17.2994 102.302 17.6294Z" fill="white"/>
<path d="M110.718 19.4847V10.7729H112.08L116.314 17.5499H116.362L116.314 15.871V10.7729H117.434V19.4847H116.266L111.836 12.3794H111.788L111.836 14.0583V19.4847H110.718Z" fill="white"/>
<path d="M69.8353 15.4819C69.8617 16.0147 69.7793 16.5473 69.5933 17.0472C69.4073 17.5472 69.1215 18.0041 68.7533 18.39C68.3406 18.818 67.8422 19.1541 67.2907 19.3762C66.7393 19.5983 66.1471 19.7014 65.553 19.6789C64.9551 19.6843 64.3622 19.5701 63.8091 19.343C63.256 19.1159 62.7538 18.7806 62.3322 18.3567C61.9105 17.9327 61.5778 17.4288 61.3537 16.8745C61.1296 16.3202 61.0186 15.7266 61.0271 15.1288C61.0186 14.5309 61.1297 13.9374 61.3539 13.3831C61.578 12.8287 61.9106 12.3248 62.3323 11.9008C62.7539 11.4769 63.256 11.1414 63.8091 10.9143C64.3622 10.6871 64.9551 10.5727 65.553 10.5779C66.1677 10.5761 66.7763 10.7004 67.3411 10.9431C67.8656 11.1557 68.3325 11.4892 68.7038 11.9165L67.938 12.6828C67.6462 12.3394 67.2794 12.0675 66.8659 11.8883C66.4523 11.7091 66.0032 11.6273 65.553 11.6492C65.0999 11.6468 64.6509 11.736 64.2331 11.9112C63.8152 12.0865 63.437 12.3443 63.1211 12.6692C62.8053 12.9941 62.5582 13.3794 62.3948 13.802C62.2313 14.2246 62.1549 14.6759 62.1699 15.1288C62.1591 15.8071 62.35 16.4734 62.7184 17.0432C63.0867 17.6129 63.616 18.0604 64.239 18.3289C64.8621 18.5975 65.5508 18.6749 66.2179 18.5515C66.885 18.4281 67.5005 18.1094 67.9862 17.6357C68.4332 17.154 68.6924 16.5278 68.7164 15.871H65.553V14.8246H69.7743C69.8142 15.0415 69.8346 15.2614 69.8353 15.4819Z" stroke="white" stroke-width="0.290391" stroke-miterlimit="10"/>
<path d="M76.5278 11.8435H72.5604V14.6055H76.1379V15.6521H72.5604V18.4141H76.5278V19.4847H71.4417V10.7729H76.5278V11.8435Z" stroke="white" stroke-width="0.290391" stroke-miterlimit="10"/>
<path d="M81.2481 19.4847H80.1279V11.8435H77.6947V10.7729H83.6813V11.8435H81.2481V19.4847Z" stroke="white" stroke-width="0.290391" stroke-miterlimit="10"/>
<path d="M88.0131 19.4847V10.7729H89.1318V19.4847H88.0131Z" stroke="white" stroke-width="0.290391" stroke-miterlimit="10"/>
<path d="M94.0973 19.4847H92.9771V11.8435H90.5441V10.7729H96.5305V11.8435H94.0973V19.4847Z" stroke="white" stroke-width="0.290391" stroke-miterlimit="10"/>
<path d="M107.863 18.3588C107.015 19.2042 105.867 19.6789 104.669 19.6789C103.472 19.6789 102.324 19.2042 101.476 18.3588C101.056 17.9339 100.726 17.429 100.506 16.8742C100.285 16.3193 100.179 15.7257 100.192 15.1288C100.179 14.5319 100.285 13.9383 100.506 13.3834C100.726 12.8286 101.056 12.3237 101.476 11.8988C101.895 11.4795 102.392 11.1471 102.94 10.9204C103.488 10.6938 104.075 10.5774 104.668 10.5779C105.261 10.5785 105.847 10.6959 106.395 10.9235C106.942 11.1511 107.439 11.4845 107.858 11.9044C108.277 12.3282 108.608 12.832 108.829 13.3858C109.051 13.9397 109.159 14.5324 109.147 15.1288C109.16 15.7257 109.053 16.3191 108.833 16.874C108.612 17.4288 108.283 17.9337 107.863 18.3588ZM102.302 17.6294C102.93 18.2563 103.781 18.6084 104.669 18.6084C105.556 18.6084 106.407 18.2563 107.035 17.6294C107.357 17.2996 107.609 16.9081 107.776 16.4783C107.942 16.0485 108.02 15.5894 108.004 15.1288C108.02 14.6682 107.942 14.2091 107.776 13.7793C107.609 13.3495 107.357 12.9579 107.035 12.6282C106.407 12.0013 105.556 11.6492 104.669 11.6492C103.781 11.6492 102.93 12.0013 102.302 12.6282C101.981 12.9582 101.729 13.3499 101.563 13.7796C101.397 14.2094 101.319 14.6683 101.335 15.1288C101.319 15.5893 101.397 16.0482 101.563 16.478C101.729 16.9077 101.981 17.2994 102.302 17.6294Z" stroke="white" stroke-width="0.290391" stroke-miterlimit="10"/>
<path d="M110.718 19.4847V10.7729H112.08L116.314 17.5499H116.362L116.314 15.871V10.7729H117.434V19.4847H116.266L111.836 12.3794H111.788L111.836 14.0583V19.4847H110.718Z" stroke="white" stroke-width="0.290391" stroke-miterlimit="10"/>
<path d="M99.9161 32.1916C98.6957 32.1962 97.504 32.5623 96.4916 33.2437C95.4791 33.925 94.6912 34.8911 94.2274 36.02C93.7636 37.1488 93.6446 38.3897 93.8856 39.5861C94.1265 40.7825 94.7165 41.8806 95.5811 42.7419C96.4457 43.6032 97.5461 44.1891 98.7434 44.4254C99.9406 44.6618 101.181 44.5381 102.308 44.07C103.435 43.6019 104.398 42.8104 105.076 41.7953C105.753 40.7803 106.115 39.5873 106.115 38.3669C106.127 37.5506 105.975 36.7403 105.667 35.9841C105.359 35.2279 104.903 34.5413 104.325 33.9652C103.746 33.389 103.058 32.9351 102.301 32.6304C101.543 32.3257 100.732 32.1765 99.9161 32.1916ZM99.9161 42.1096C99.1645 42.1632 98.4142 41.9892 97.7629 41.6104C97.1115 41.2316 96.5893 40.6655 96.2643 39.9858C95.9392 39.306 95.8263 38.5442 95.9403 37.7994C96.0542 37.0546 96.3898 36.3613 96.9033 35.8099C97.4168 35.2585 98.0844 34.8744 98.8192 34.7078C99.554 34.5411 100.322 34.5995 101.023 34.8754C101.724 35.1513 102.326 35.6319 102.75 36.2546C103.174 36.8774 103.401 37.6134 103.401 38.3669C103.424 38.8429 103.351 39.3186 103.188 39.7662C103.024 40.2137 102.772 40.6239 102.447 40.9726C102.123 41.3214 101.731 41.6016 101.297 41.7969C100.862 41.9922 100.392 42.0985 99.9161 42.1096ZM86.3934 32.1916C85.173 32.1961 83.9813 32.5622 82.9689 33.2436C81.9564 33.925 81.1685 34.891 80.7046 36.0199C80.2408 37.1487 80.1218 38.3896 80.3627 39.586C80.6037 40.7824 81.1936 41.8806 82.0582 42.7419C82.9228 43.6032 84.0232 44.189 85.2205 44.4254C86.4178 44.6618 87.6583 44.5382 88.7853 44.0701C89.9124 43.602 90.8755 42.8104 91.553 41.7954C92.2305 40.7803 92.5921 39.5873 92.5921 38.3669C92.6041 37.5506 92.4518 36.7403 92.1442 35.9841C91.8367 35.2279 91.3801 34.5414 90.8018 33.9652C90.2235 33.3891 89.5352 32.9351 88.7778 32.6304C88.0205 32.3257 87.2096 32.1765 86.3934 32.1916ZM86.3934 42.1096C85.6418 42.1632 84.8915 41.9892 84.2402 41.6104C83.5889 41.2316 83.0667 40.6655 82.7416 39.9858C82.4165 39.306 82.3036 38.5442 82.4176 37.7994C82.5316 37.0546 82.8671 36.3613 83.3806 35.8099C83.8941 35.2585 84.5617 34.8744 85.2965 34.7078C86.0313 34.5411 86.7993 34.5995 87.5005 34.8754C88.2016 35.1513 88.8034 35.6319 89.2276 36.2546C89.6518 36.8774 89.8787 37.6134 89.8787 38.3669C89.9015 38.8429 89.8289 39.3187 89.665 39.7662C89.5012 40.2137 89.2495 40.6239 88.9247 40.9726C88.5999 41.3214 88.2087 41.6017 87.7739 41.7969C87.3392 41.9922 86.8698 42.0985 86.3934 42.1096ZM70.3075 34.0864V36.7061H76.5766C76.4861 37.9349 75.9833 39.0972 75.1496 40.0044C74.5214 40.6447 73.7659 41.1463 72.9318 41.4767C72.0978 41.807 71.2038 41.9589 70.3075 41.9224C68.4751 41.8976 66.7261 41.1523 65.4391 39.8477C64.1521 38.5432 63.4305 36.7843 63.4305 34.9517C63.4305 33.1192 64.1521 31.3603 65.4391 30.0557C66.7261 28.7512 68.4751 28.0058 70.3075 27.981C72.0675 27.958 73.7656 28.6305 75.0327 29.8523L76.8806 28.0044C76.0161 27.1485 74.9893 26.4738 73.8606 26.0199C72.7319 25.566 71.5239 25.342 70.3075 25.3611C69.0363 25.3426 67.7741 25.577 66.5942 26.0507C65.4144 26.5243 64.3406 27.2278 63.4351 28.1202C62.5296 29.0126 61.8105 30.0762 61.3197 31.2489C60.8289 32.4217 60.5762 33.6804 60.5762 34.9517C60.5762 36.2231 60.8289 37.4817 61.3197 38.6545C61.8105 39.8273 62.5296 40.8908 63.4351 41.7832C64.3406 42.6756 65.4144 43.3791 66.5942 43.8528C67.7741 44.3265 69.0363 44.5608 70.3075 44.5423C71.5495 44.5938 72.7884 44.3806 73.9418 43.9169C75.0952 43.4531 76.1368 42.7493 76.9975 41.8523C78.5256 40.1844 79.34 37.9846 79.2666 35.7237C79.2726 35.1747 79.2255 34.6263 79.1261 34.0864H70.3075ZM136.093 36.1213C135.722 35.0027 135.016 34.0256 134.07 33.3225C133.124 32.6194 131.985 32.2246 130.807 32.1916C130.013 32.1965 129.229 32.3622 128.501 32.6788C127.774 32.9954 127.118 33.4562 126.574 34.0335C126.029 34.6107 125.607 35.2923 125.334 36.0371C125.06 36.7819 124.941 37.5745 124.982 38.3669C124.964 39.1788 125.11 39.986 125.411 40.7402C125.712 41.4944 126.162 42.1803 126.734 42.7567C127.307 43.3331 127.989 43.7883 128.741 44.0951C129.493 44.4019 130.299 44.554 131.111 44.5423C132.128 44.548 133.131 44.3008 134.029 43.8232C134.927 43.3455 135.693 42.6522 136.257 41.8055L134.152 40.4021C133.836 40.9258 133.39 41.3586 132.857 41.658C132.324 41.9573 131.722 42.1129 131.111 42.1096C130.482 42.1336 129.86 41.9681 129.326 41.6344C128.792 41.3008 128.371 40.8143 128.117 40.2383L136.374 36.8232L136.093 36.1213ZM127.672 38.1799C127.643 37.7304 127.704 37.2796 127.851 36.854C127.998 36.4283 128.229 36.0363 128.53 35.7009C128.83 35.3654 129.195 35.0933 129.602 34.9004C130.009 34.7075 130.45 34.5978 130.9 34.5776C131.369 34.5467 131.836 34.6545 132.244 34.8875C132.651 35.1204 132.981 35.4682 133.193 35.8875L127.672 38.1799ZM120.959 44.168H123.672V26.0162H120.959V44.168ZM116.514 33.5716H116.421C116.008 33.1234 115.505 32.7685 114.944 32.5305C114.383 32.2925 113.778 32.1769 113.169 32.1916C111.577 32.2593 110.072 32.9396 108.969 34.0903C107.867 35.241 107.251 36.7731 107.251 38.3669C107.251 39.9607 107.867 41.4929 108.969 42.6436C110.072 43.7943 111.577 44.4746 113.169 44.5423C113.781 44.5586 114.388 44.4415 114.95 44.1991C115.511 43.9567 116.013 43.5949 116.421 43.1389H116.514V44.0278C116.514 46.3904 115.251 47.6534 113.216 47.6534C112.538 47.6372 111.88 47.4194 111.326 47.0278C110.772 46.6362 110.347 46.0886 110.105 45.4546L107.742 46.4371C108.188 47.5213 108.947 48.4478 109.922 49.0979C110.897 49.748 112.044 50.0921 113.216 50.0862C116.397 50.0862 119.087 48.2149 119.087 43.6535V32.5657H116.514V33.5716ZM113.403 42.1096C112.465 42.0301 111.592 41.6013 110.955 40.9082C110.318 40.2151 109.965 39.3082 109.965 38.3669C109.965 37.4257 110.318 36.5188 110.955 35.8257C111.592 35.1326 112.465 34.7038 113.403 34.6243C113.87 34.6471 114.327 34.7636 114.748 34.9668C115.168 35.1701 115.544 35.456 115.852 35.8074C116.159 36.1588 116.393 36.5686 116.539 37.0124C116.685 37.4561 116.74 37.9247 116.701 38.3903C116.738 38.8529 116.681 39.3181 116.533 39.7582C116.386 40.1982 116.151 40.6039 115.843 40.9512C115.535 41.2984 115.16 41.5799 114.741 41.779C114.322 41.978 113.867 42.0905 113.403 42.1096ZM148.803 26.0165H142.311V44.168H145.02V37.291H148.803C149.57 37.333 150.337 37.2183 151.057 36.954C151.777 36.6897 152.437 36.2813 152.994 35.7537C153.551 35.2261 153.995 34.5904 154.298 33.8855C154.602 33.1805 154.758 32.4212 154.758 31.6537C154.758 30.8863 154.602 30.1269 154.298 29.422C153.995 28.7171 153.551 28.0814 152.994 27.5538C152.437 27.0262 151.777 26.6178 151.057 26.3535C150.337 26.0892 149.57 25.9745 148.803 26.0165ZM148.873 34.7649H145.02V28.5428H148.873C149.287 28.5342 149.699 28.6083 150.084 28.7608C150.469 28.9133 150.82 29.1411 151.115 29.4308C151.411 29.7206 151.646 30.0664 151.807 30.4481C151.967 30.8299 152.05 31.2398 152.05 31.6538C152.05 32.0679 151.967 32.4778 151.807 32.8595C151.646 33.2412 151.411 33.5871 151.115 33.8768C150.82 34.1665 150.469 34.3943 150.084 34.5468C149.699 34.6993 149.287 34.7734 148.873 34.7649ZM165.617 32.1582C164.628 32.1004 163.644 32.3326 162.785 32.8263C161.927 33.3199 161.231 34.0535 160.783 34.9371L163.188 35.9412C163.427 35.5027 163.788 35.1432 164.228 34.9068C164.667 34.6704 165.166 34.5673 165.664 34.6101C166.351 34.543 167.037 34.7511 167.571 35.1888C168.105 35.6266 168.443 36.2582 168.513 36.9453V37.1321C167.643 36.6699 166.672 36.4293 165.687 36.4316C163.095 36.4316 160.456 37.8561 160.456 40.5182C160.481 41.0793 160.619 41.6296 160.861 42.1364C161.103 42.6432 161.444 43.0963 161.864 43.4688C162.285 43.8412 162.776 44.1254 163.308 44.3045C163.84 44.4836 164.403 44.554 164.963 44.5114C165.645 44.5516 166.326 44.4081 166.933 44.096C167.541 43.7838 168.054 43.3145 168.419 42.7367H168.513V44.1378H171.128V37.1789C171.128 33.9563 168.723 32.1582 165.617 32.1582ZM165.29 42.1061C164.403 42.1061 163.165 41.6625 163.165 40.5648C163.165 39.1639 164.706 38.6266 166.037 38.6266C166.902 38.6036 167.757 38.8133 168.513 39.2338C168.413 40.0211 168.032 40.7458 167.44 41.2738C166.847 41.8018 166.084 42.0975 165.29 42.1061ZM180.656 32.5551L177.55 40.4247H177.456L174.234 32.5551H171.315L176.149 43.554L173.393 49.6722H176.219L183.668 32.5551H180.656ZM156.253 44.168H158.962V26.0165H156.253V44.168Z" fill="white"/>
<path fill-rule="evenodd" clip-rule="evenodd" d="M15.7323 12.1759C15.5607 12.5643 15.466 13.0402 15.466 13.5938V45.7053C15.466 46.2601 15.5609 46.736 15.7325 47.1243L33.2053 29.649L15.7323 12.1759ZM16.7417 48.1685C17.3893 48.4457 18.2342 48.3578 19.1554 47.8353L39.711 36.1547L34.232 30.6757L16.7417 48.1685ZM41.0213 35.4116L47.47 31.7477C49.4984 30.5933 49.4984 28.7073 47.47 27.5544L41.0183 23.8884L35.2586 29.6489L41.0213 35.4116ZM39.709 23.1444L19.1554 11.4653C18.2341 10.9417 17.3892 10.8544 16.7416 11.1319L34.2319 28.6222L39.709 23.1444Z" fill="white"/>
</g>
<defs>
<clipPath id="clip0_453_665">
<rect width="196.014" height="58.0786" fill="white" transform="translate(0.985779 0.609009)"/>
</clipPath>
</defs>
</svg>
